<?xml version="1.0" encoding="UTF-8"?>
<!DOCTYPE svg PUBLIC "-//W3C//DTD SVG 1.1//EN" "http://www.w3.org/Graphics/SVG/1.1/DTD/svg11.dtd">
<svg xmlns="http://www.w3.org/2000/svg" version="1.1" width="96px" height="96px" style="shape-rendering:geometricPrecision; text-rendering:geometricPrecision; image-rendering:optimizeQuality; fill-rule:evenodd; clip-rule:evenodd" xmlns:xlink="http://www.w3.org/1999/xlink">
<g><path style="opacity:0.934" fill="#e5e5e6" d="M 87.5,15.5 C 88.2874,31.1353 88.7874,46.802 89,62.5C 89.3826,63.056 89.8826,63.3893 90.5,63.5C 90.8333,64.1667 91.1667,64.8333 91.5,65.5C 91.6655,69.5138 91.4988,73.5138 91,77.5C 89.3374,79.9167 87.1707,81.75 84.5,83C 58.4576,83.815 32.4576,83.6483 6.5,82.5C 0.638383,77.6949 -0.861617,71.6949 2,64.5C 2.66667,63.8333 3.33333,63.1667 4,62.5C 4.33333,47.5 4.66667,32.5 5,17.5C 5.68979,14.804 7.18979,12.6374 9.5,11C 33.1035,9.3637 56.7701,9.03037 80.5,10C 83.5721,10.9068 85.9055,12.7401 87.5,15.5 Z"/></g>
<g><path style="opacity:1" fill="#4b4476" d="M 13.5,14.5 C 35.5025,14.3334 57.5025,14.5 79.5,15C 80.3333,15.8333 81.1667,16.6667 82,17.5C 82.4999,33.8299 82.6666,50.1633 82.5,66.5C 83.8333,66.5 85.1667,66.5 86.5,66.5C 86.6646,69.5184 86.498,72.5184 86,75.5C 85.1667,76.3333 84.3333,77.1667 83.5,78C 58.8333,78.6667 34.1667,78.6667 9.5,78C 8.66667,77.1667 7.83333,76.3333 7,75.5C 6.50204,72.5184 6.33537,69.5184 6.5,66.5C 7.83333,66.5 9.16667,66.5 10.5,66.5C 10.3334,50.1633 10.5001,33.8299 11,17.5C 12.045,16.6266 12.8783,15.6266 13.5,14.5 Z"/></g>
<g><path style="opacity:0.209" fill="#000000" d="M 87.5,15.5 C 88.9663,16.347 89.7996,17.6803 90,19.5C 90.4999,34.1629 90.6666,48.8295 90.5,63.5C 89.8826,63.3893 89.3826,63.056 89,62.5C 88.7874,46.802 88.2874,31.1353 87.5,15.5 Z"/></g>
<g><path style="opacity:1" fill="#9acbf6" d="M 80.5,69.5 C 71.1667,69.5 61.8333,69.5 52.5,69.5C 48.5,69.5 44.5,69.5 40.5,69.5C 31.1667,69.5 21.8333,69.5 12.5,69.5C 12.3334,52.83 12.5001,36.1633 13,19.5C 13.5,19 14,18.5 14.5,18C 36.2098,17.178 57.8765,17.3447 79.5,18.5C 80.4995,35.4869 80.8328,52.4869 80.5,69.5 Z"/></g>
<g><path style="opacity:1" fill="#d7ecfe" d="M 16.5,21.5 C 36.5,21.5 56.5,21.5 76.5,21.5C 76.5,35.8333 76.5,50.1667 76.5,64.5C 56.5,64.5 36.5,64.5 16.5,64.5C 16.5,50.1667 16.5,35.8333 16.5,21.5 Z"/></g>
<g><path style="opacity:1" fill="#3d66a9" d="M 47.5,32.5 C 48.5,32.5 49.5,32.5 50.5,32.5C 48.9305,39.5469 46.5972,46.2135 43.5,52.5C 43.1667,51.8333 42.8333,51.1667 42.5,50.5C 44.1738,44.4817 45.8405,38.4817 47.5,32.5 Z"/></g>
<g><path style="opacity:1" fill="#3e67aa" d="M 39.5,37.5 C 41.0281,37.5173 41.5281,38.184 41,39.5C 38.5704,40.9648 36.0704,42.2982 33.5,43.5C 35.6667,44.9479 38,46.1146 40.5,47C 41.9928,48.1562 41.8261,48.9896 40,49.5C 36.8909,48.0288 33.7243,46.6954 30.5,45.5C 29.5713,44.3112 29.238,42.9778 29.5,41.5C 33.116,40.6857 36.4493,39.3523 39.5,37.5 Z"/></g>
<g><path style="opacity:1" fill="#4068ab" d="M 51.5,37.5 C 55.3932,39.02 59.3932,40.3533 63.5,41.5C 63.762,42.9778 63.4287,44.3112 62.5,45.5C 59.2757,46.6954 56.1091,48.0288 53,49.5C 51.1739,48.9896 51.0072,48.1562 52.5,47C 54.8422,45.8289 57.1756,44.6622 59.5,43.5C 57.1756,42.3378 54.8422,41.1711 52.5,40C 51.7476,39.3292 51.4142,38.4959 51.5,37.5 Z"/></g>
<g><path style="opacity:0.25" fill="#050505" d="M 91.5,65.5 C 93.445,67.3069 94.445,69.6402 94.5,72.5C 94.7062,78.6036 92.0395,82.7703 86.5,85C 61.1667,85.6667 35.8333,85.6667 10.5,85C 8.68034,84.7996 7.347,83.9663 6.5,82.5C 32.4576,83.6483 58.4576,83.815 84.5,83C 87.1707,81.75 89.3374,79.9167 91,77.5C 91.4988,73.5138 91.6655,69.5138 91.5,65.5 Z"/></g>
<g><path style="opacity:1" fill="#6f7bbe" d="M 12.5,69.5 C 21.8333,69.5 31.1667,69.5 40.5,69.5C 40.4142,70.4959 40.7476,71.3292 41.5,72C 44.8333,72.6667 48.1667,72.6667 51.5,72C 52.2524,71.3292 52.5858,70.4959 52.5,69.5C 61.8333,69.5 71.1667,69.5 80.5,69.5C 81.5,69.5 82.5,69.5 83.5,69.5C 83.7394,71.4672 83.4061,73.3005 82.5,75C 58.5,75.6667 34.5,75.6667 10.5,75C 9.59391,73.3005 9.26057,71.4672 9.5,69.5C 10.5,69.5 11.5,69.5 12.5,69.5 Z"/></g>
<g><path style="opacity:1" fill="#413b71" d="M 40.5,69.5 C 44.5,69.5 48.5,69.5 52.5,69.5C 52.5858,70.4959 52.2524,71.3292 51.5,72C 48.1667,72.6667 44.8333,72.6667 41.5,72C 40.7476,71.3292 40.4142,70.4959 40.5,69.5 Z"/></g>
</svg>
